<svg id="Capa_1" enable-background="new 0 0 510.202 510.202" height="512" viewBox="0 0 510.202 510.202" width="512" xmlns="http://www.w3.org/2000/svg"><g><g><path d="m433.297 95.864h-379.992l-45.804 33.633v238.39c0 20.3 16.45 36.75 36.75 36.75h201.43 181.06c18.73 0 33.92-15.18 33.92-33.91v-136.35-104.88z" fill="#f9f7f8"/><path d="m385.833 218.841c-78.227 0-141.869 63.642-141.869 141.868 0 15.327 2.453 30.09 6.971 43.929h175.805c18.73 0 33.92-15.18 33.92-33.91v-130.495c-21.736-13.55-47.381-21.392-74.827-21.392z" fill="#efedef"/><circle cx="385.833" cy="360.709" fill="#9cf8d2" r="116.868"/><path d="m304.239 360.709c0-58.549 43.056-107.041 99.232-115.544-5.752-.871-11.642-1.324-17.637-1.324-64.545 0-116.868 52.324-116.868 116.869 0 64.544 52.324 116.868 116.868 116.868 5.995 0 11.885-.453 17.637-1.324-56.177-8.505-99.232-56.996-99.232-115.545z" fill="#6cf5c2"/><path d="m85.422 212.464h-22.24c-5.455 0-9.877-4.422-9.877-9.877v-22.24c0-5.455 4.422-9.877 9.877-9.877h22.24c5.455 0 9.877 4.422 9.877 9.877v22.24c0 5.455-4.422 9.877-9.877 9.877z" fill="#f79595"/><path d="m164.943 212.464h-22.24c-5.455 0-9.877-4.422-9.877-9.877v-22.24c0-5.455 4.422-9.877 9.877-9.877h22.24c5.455 0 9.877 4.422 9.877 9.877v22.24c0 5.455-4.422 9.877-9.877 9.877z" fill="#d4f2f6"/><path d="m244.464 212.464h-22.24c-5.455 0-9.877-4.422-9.877-9.877v-22.24c0-5.455 4.422-9.877 9.877-9.877h22.24c5.455 0 9.877 4.422 9.877 9.877v22.24c0 5.455-4.422 9.877-9.877 9.877z" fill="#d4f2f6"/><path d="m323.986 212.464h-22.24c-5.455 0-9.877-4.422-9.877-9.877v-22.24c0-5.455 4.422-9.877 9.877-9.877h22.24c5.455 0 9.877 4.422 9.877 9.877v22.24c-.001 5.455-4.423 9.877-9.877 9.877z" fill="#d4f2f6"/><path d="m403.507 212.464h-22.24c-5.455 0-9.877-4.422-9.877-9.877v-22.24c0-5.455 4.422-9.877 9.877-9.877h22.24c5.455 0 9.877 4.422 9.877 9.877v22.24c0 5.455-4.422 9.877-9.877 9.877z" fill="#d4f2f6"/><path d="m85.422 288.225h-22.24c-5.455 0-9.877-4.422-9.877-9.877v-22.24c0-5.455 4.422-9.877 9.877-9.877h22.24c5.455 0 9.877 4.422 9.877 9.877v22.24c0 5.455-4.422 9.877-9.877 9.877z" fill="#f79595"/><path d="m164.943 288.225h-22.24c-5.455 0-9.877-4.422-9.877-9.877v-22.24c0-5.455 4.422-9.877 9.877-9.877h22.24c5.455 0 9.877 4.422 9.877 9.877v22.24c0 5.455-4.422 9.877-9.877 9.877z" fill="#d4f2f6"/><path d="m244.464 288.225h-22.24c-5.455 0-9.877-4.422-9.877-9.877v-22.24c0-5.455 4.422-9.877 9.877-9.877h22.24c5.455 0 9.877 4.422 9.877 9.877v22.24c0 5.455-4.422 9.877-9.877 9.877z" fill="#d4f2f6"/><path d="m85.422 363.986h-22.24c-5.455 0-9.877-4.422-9.877-9.877v-22.24c0-5.455 4.422-9.877 9.877-9.877h22.24c5.455 0 9.877 4.422 9.877 9.877v22.24c0 5.455-4.422 9.877-9.877 9.877z" fill="#f79595"/><path d="m164.943 363.986h-22.24c-5.455 0-9.877-4.422-9.877-9.877v-22.24c0-5.455 4.422-9.877 9.877-9.877h22.24c5.455 0 9.877 4.422 9.877 9.877v22.24c0 5.455-4.422 9.877-9.877 9.877z" fill="#d4f2f6"/><g><g id="XMLID_1114_"><path d="m82.514 367.887v-238.39l45.804-33.634h-75.013l-45.804 33.634v238.39c0 20.3 16.45 36.75 36.75 36.75h75.013c-20.3 0-36.75-16.45-36.75-36.75z" fill="#efedef"/><g fill="#ee6161"><path d="m63.182 363.987h19.332v-41.994h-19.332c-5.455 0-9.877 4.422-9.877 9.877v22.24c0 5.454 4.422 9.877 9.877 9.877z"/><path d="m63.182 288.225h19.332v-41.994h-19.332c-5.455 0-9.877 4.422-9.877 9.877v22.24c0 5.455 4.422 9.877 9.877 9.877z"/><path d="m63.182 212.464h19.332v-41.994h-19.332c-5.455 0-9.877 4.422-9.877 9.877v22.24c0 5.455 4.422 9.877 9.877 9.877z"/></g><g><path d="m460.661 99.994v28.49h-453.16v-28.49c0-20.29 16.45-36.75 36.75-36.75h44.81 290.03 44.82c20.29 0 36.75 16.46 36.75 36.75z" fill="#d4f2f6"/></g><path d="m119.264 63.243h-30.203-44.81c-20.3 0-36.75 16.46-36.75 36.75v28.49h75.013v-28.49c0-20.29 16.45-36.75 36.75-36.75z" fill="#a6e7f0"/></g></g><g fill="#efedef"><path d="m234.08 95.896c-8.559 0-15.498-6.939-15.498-15.498v-32.275c0-8.559 6.939-15.498 15.498-15.498 8.559 0 15.498 6.939 15.498 15.498v32.275c0 8.559-6.939 15.498-15.498 15.498z"/><path d="m169.321 95.896c-8.559 0-15.498-6.939-15.498-15.498v-32.275c0-8.559 6.939-15.498 15.498-15.498 8.559 0 15.498 6.939 15.498 15.498v32.275c.001 8.559-6.938 15.498-15.498 15.498z"/><path d="m104.563 95.896c-8.559 0-15.498-6.939-15.498-15.498v-32.275c0-8.559 6.939-15.498 15.498-15.498 8.559 0 15.498 6.939 15.498 15.498v32.275c0 8.559-6.939 15.498-15.498 15.498z"/><path d="m298.838 95.896c8.559 0 15.498-6.939 15.498-15.498v-32.275c0-8.559-6.939-15.498-15.498-15.498-8.559 0-15.498 6.939-15.498 15.498v32.275c0 8.559 6.939 15.498 15.498 15.498z"/><path d="m363.597 95.896c8.559 0 15.498-6.939 15.498-15.498v-32.275c0-8.559-6.939-15.498-15.498-15.498-8.559 0-15.498 6.939-15.498 15.498v32.275c0 8.559 6.939 15.498 15.498 15.498z"/></g><circle cx="385.833" cy="360.709" fill="#00f2a6" r="18.972"/></g><g><path d="m245.679 397.142h-201.427c-16.129 0-29.252-13.122-29.252-29.252v-230.893h49.893c4.142 0 7.5-3.357 7.5-7.5s-3.358-7.5-7.5-7.5h-49.893v-20.985c0-16.13 13.123-29.252 29.252-29.252h37.313v8.638c0 12.682 10.317 22.998 22.999 22.998 12.681 0 22.998-10.316 22.998-22.998v-8.638h18.762v8.638c0 12.682 10.317 22.998 22.998 22.998s22.998-10.316 22.998-22.998v-8.638h18.762v8.638c0 12.682 10.317 22.998 22.999 22.998 12.681 0 22.998-10.316 22.998-22.998v-8.638h18.762v8.638c0 12.682 10.317 22.998 22.998 22.998s22.998-10.316 22.998-22.998v-8.638h18.763v8.638c0 12.682 10.317 22.998 22.998 22.998s22.998-10.316 22.998-22.998v-8.638h37.313c16.129 0 29.252 13.122 29.252 29.252v20.985h-356.306c-4.142 0-7.5 3.357-7.5 7.5s3.358 7.5 7.5 7.5h356.305v97.384c0 4.143 3.358 7.5 7.5 7.5s7.5-3.357 7.5-7.5v-133.37c0-24.4-19.852-44.252-44.252-44.252h-37.313v-8.637c0-12.682-10.317-22.998-22.998-22.998s-22.998 10.316-22.998 22.998v8.637h-18.763v-8.637c0-12.682-10.317-22.998-22.998-22.998s-22.998 10.317-22.998 22.999v8.637h-18.762v-8.637c0-12.682-10.317-22.998-22.998-22.998-12.682 0-22.999 10.316-22.999 22.998v8.637h-18.762v-8.637c0-12.682-10.317-22.998-22.998-22.998s-22.998 10.316-22.998 22.998v8.637h-18.762v-8.637c0-12.682-10.317-22.998-22.998-22.998-12.682 0-22.999 10.316-22.999 22.998v8.637h-37.312c-24.4 0-44.252 19.851-44.252 44.251v266.879c0 24.4 19.852 44.252 44.252 44.252h201.427c4.142 0 7.5-3.357 7.5-7.5s-3.358-7.5-7.5-7.5zm109.92-349.019c0-4.41 3.588-7.998 7.998-7.998s7.998 3.588 7.998 7.998v32.274c0 4.41-3.588 7.998-7.998 7.998s-7.998-3.588-7.998-7.998zm-64.759 0c0-4.41 3.588-7.998 7.998-7.998s7.998 3.588 7.998 7.998v32.274c0 4.41-3.588 7.998-7.998 7.998s-7.998-3.588-7.998-7.998zm-64.758 0c0-4.41 3.588-7.998 7.999-7.998s7.998 3.588 7.998 7.998v32.274c0 4.41-3.588 7.998-7.998 7.998s-7.999-3.588-7.999-7.998zm-64.759 0c0-4.41 3.588-7.998 7.998-7.998s7.998 3.588 7.998 7.998v32.274c0 4.41-3.588 7.998-7.998 7.998s-7.998-3.588-7.998-7.998zm-64.759 0c0-4.41 3.588-7.998 7.999-7.998 4.41 0 7.998 3.588 7.998 7.998v32.274c0 4.41-3.588 7.998-7.998 7.998-4.411 0-7.999-3.588-7.999-7.998z"/><path d="m385.833 236.34c-44.158 0-85.387 23.746-107.6 61.972-2.081 3.582-.865 8.172 2.717 10.253 3.581 2.083 8.172.866 10.253-2.716 19.537-33.622 55.797-54.509 94.63-54.509 60.306 0 109.368 49.063 109.368 109.369s-49.063 109.368-109.368 109.368c-60.306 0-109.369-49.063-109.369-109.368 0-9.163 1.137-18.273 3.38-27.078 1.022-4.015-1.403-8.098-5.417-9.119-4.016-1.027-8.097 1.402-9.119 5.416-2.55 10.015-3.844 20.371-3.844 30.781 0 68.577 55.792 124.368 124.369 124.368s124.368-55.791 124.368-124.368-55.791-124.369-124.368-124.369z"/><path d="m393.333 281.467v-6.505c0-4.143-3.358-7.5-7.5-7.5s-7.5 3.357-7.5 7.5v6.505c0 4.143 3.358 7.5 7.5 7.5s7.5-3.358 7.5-7.5z"/><path d="m329.801 312.177c1.919 0 3.838-.732 5.303-2.196 2.929-2.929 2.93-7.677.001-10.606l-4.6-4.601c-2.928-2.929-7.677-2.93-10.606-.001s-2.93 7.677-.001 10.606l4.6 4.601c1.463 1.464 3.383 2.197 5.303 2.197z"/><path d="m306.591 368.209c4.142 0 7.5-3.357 7.5-7.5s-3.358-7.5-7.5-7.5h-6.505c-4.142 0-7.5 3.357-7.5 7.5s3.358 7.5 7.5 7.5z"/><path d="m319.898 426.644c1.464 1.464 3.384 2.196 5.303 2.196s3.839-.732 5.303-2.196l4.6-4.6c2.929-2.93 2.929-7.678 0-10.607-2.929-2.928-7.678-2.928-10.606 0l-4.6 4.6c-2.929 2.93-2.929 7.678 0 10.607z"/><path d="m378.333 439.951v6.505c0 4.143 3.358 7.5 7.5 7.5s7.5-3.357 7.5-7.5v-6.505c0-4.143-3.358-7.5-7.5-7.5s-7.5 3.357-7.5 7.5z"/><path d="m436.563 422.045 4.6 4.6c1.465 1.464 3.384 2.196 5.303 2.196s3.839-.732 5.304-2.197c2.929-2.929 2.928-7.678 0-10.606l-4.6-4.6c-2.93-2.928-7.678-2.929-10.607.001-2.93 2.928-2.929 7.677 0 10.606z"/><path d="m471.58 368.209c4.142 0 7.5-3.357 7.5-7.5s-3.358-7.5-7.5-7.5h-6.505c-4.142 0-7.5 3.357-7.5 7.5s3.358 7.5 7.5 7.5z"/><path d="m441.866 312.177c1.919 0 3.839-.732 5.304-2.197l4.6-4.601c2.929-2.929 2.928-7.678 0-10.606-2.93-2.928-7.678-2.929-10.607.001l-4.6 4.601c-2.929 2.929-2.928 7.678 0 10.606 1.464 1.463 3.383 2.196 5.303 2.196z"/><path d="m357.286 317.746c-2.77-3.081-7.513-3.331-10.591-.563-3.08 2.77-3.332 7.512-.562 10.592l17.156 19.078c-2.488 4.033-3.927 8.779-3.927 13.855 0 14.597 11.875 26.472 26.472 26.472s26.472-11.875 26.472-26.472c0-3.638-.738-7.106-2.072-10.265l13.798-11.283c3.206-2.622 3.68-7.347 1.058-10.554-2.621-3.207-7.347-3.681-10.554-1.058l-13.806 11.29c-4.247-2.901-9.376-4.602-14.896-4.602-4.078 0-7.942.928-11.396 2.583zm40.019 42.963c0 6.325-5.146 11.472-11.472 11.472s-11.472-5.146-11.472-11.472c0-3.361 1.462-6.379 3.772-8.479.014-.013.029-.023.043-.036.016-.015.03-.031.046-.046 2.028-1.805 4.689-2.911 7.61-2.911 6.327 0 11.473 5.147 11.473 11.472z"/><path d="m102.799 180.347c0-9.582-7.795-17.377-17.377-17.377h-22.24c-9.582 0-17.377 7.795-17.377 17.377v22.24c0 9.582 7.795 17.377 17.377 17.377h22.24c9.582 0 17.377-7.795 17.377-17.377zm-15 22.241c0 1.311-1.066 2.377-2.377 2.377h-22.24c-1.311 0-2.377-1.066-2.377-2.377v-22.24c0-1.311 1.066-2.377 2.377-2.377h22.24c1.311 0 2.377 1.066 2.377 2.377z"/><path d="m182.32 180.347c0-9.582-7.795-17.377-17.377-17.377h-22.24c-9.582 0-17.377 7.795-17.377 17.377v22.24c0 9.582 7.795 17.377 17.377 17.377h22.24c9.582 0 17.377-7.795 17.377-17.377zm-15 22.241c0 1.311-1.066 2.377-2.377 2.377h-22.24c-1.311 0-2.377-1.066-2.377-2.377v-22.24c0-1.311 1.066-2.377 2.377-2.377h22.24c1.311 0 2.377 1.066 2.377 2.377z"/><path d="m222.224 162.97c-9.582 0-17.377 7.795-17.377 17.377v22.24c0 9.582 7.795 17.377 17.377 17.377h22.24c9.582 0 17.377-7.795 17.377-17.377v-22.24c0-9.582-7.795-17.377-17.377-17.377zm24.617 17.377v22.24c0 1.311-1.066 2.377-2.377 2.377h-22.24c-1.311 0-2.377-1.066-2.377-2.377v-22.24c0-1.311 1.066-2.377 2.377-2.377h22.24c1.311 0 2.377 1.067 2.377 2.377z"/><path d="m301.745 162.97c-9.582 0-17.377 7.795-17.377 17.377v22.24c0 9.582 7.795 17.377 17.377 17.377h22.24c9.582 0 17.377-7.795 17.377-17.377v-22.24c0-9.582-7.795-17.377-17.377-17.377zm24.617 17.377v22.24c0 1.311-1.066 2.377-2.377 2.377h-22.24c-1.311 0-2.377-1.066-2.377-2.377v-22.24c0-1.311 1.066-2.377 2.377-2.377h22.24c1.311 0 2.377 1.067 2.377 2.377z"/><path d="m381.266 162.97c-9.582 0-17.376 7.795-17.376 17.377v22.24c0 9.582 7.795 17.377 17.376 17.377h22.241c9.582 0 17.377-7.795 17.377-17.377v-22.24c0-9.582-7.795-17.377-17.377-17.377zm24.618 17.377v22.24c0 1.311-1.066 2.377-2.377 2.377h-22.241c-1.311 0-2.376-1.066-2.376-2.377v-22.24c0-1.311 1.066-2.377 2.376-2.377h22.241c1.31 0 2.377 1.067 2.377 2.377z"/><path d="m102.799 256.108c0-9.582-7.795-17.377-17.377-17.377h-22.24c-9.582 0-17.377 7.795-17.377 17.377v22.24c0 9.582 7.795 17.377 17.377 17.377h22.24c9.582 0 17.377-7.795 17.377-17.377zm-15 22.24c0 1.311-1.066 2.377-2.377 2.377h-22.24c-1.311 0-2.377-1.066-2.377-2.377v-22.24c0-1.311 1.066-2.377 2.377-2.377h22.24c1.311 0 2.377 1.066 2.377 2.377z"/><path d="m182.32 256.108c0-9.582-7.795-17.377-17.377-17.377h-22.24c-9.582 0-17.377 7.795-17.377 17.377v22.24c0 9.582 7.795 17.377 17.377 17.377h22.24c9.582 0 17.377-7.795 17.377-17.377zm-15 22.24c0 1.311-1.066 2.377-2.377 2.377h-22.24c-1.311 0-2.377-1.066-2.377-2.377v-22.24c0-1.311 1.066-2.377 2.377-2.377h22.24c1.311 0 2.377 1.066 2.377 2.377z"/><path d="m261.841 256.108c0-9.582-7.795-17.377-17.377-17.377h-22.24c-9.582 0-17.377 7.795-17.377 17.377v22.24c0 9.582 7.795 17.377 17.377 17.377h22.24c9.582 0 17.377-7.795 17.377-17.377zm-15 22.24c0 1.311-1.066 2.377-2.377 2.377h-22.24c-1.311 0-2.377-1.066-2.377-2.377v-22.24c0-1.311 1.066-2.377 2.377-2.377h22.24c1.311 0 2.377 1.066 2.377 2.377z"/><path d="m85.422 314.492h-22.24c-9.582 0-17.377 7.795-17.377 17.377v22.24c0 9.582 7.795 17.377 17.377 17.377h22.24c9.582 0 17.377-7.795 17.377-17.377v-22.24c0-9.582-7.795-17.377-17.377-17.377zm2.377 39.617c0 1.311-1.066 2.377-2.377 2.377h-22.24c-1.311 0-2.377-1.066-2.377-2.377v-22.24c0-1.311 1.066-2.377 2.377-2.377h22.24c1.311 0 2.377 1.066 2.377 2.377z"/><path d="m164.943 314.492h-22.24c-9.582 0-17.377 7.795-17.377 17.377v22.24c0 9.582 7.795 17.377 17.377 17.377h22.24c9.582 0 17.377-7.795 17.377-17.377v-22.24c0-9.582-7.795-17.377-17.377-17.377zm2.377 39.617c0 1.311-1.066 2.377-2.377 2.377h-22.24c-1.311 0-2.377-1.066-2.377-2.377v-22.24c0-1.311 1.066-2.377 2.377-2.377h22.24c1.311 0 2.377 1.066 2.377 2.377z"/></g></g></svg>